REM DIRINDEX 1\2,1\3
REM DIRNAME folder01,folder02,folder03
TITLE ""
FILE "NextStage_4th-Part5-P214-4.mp3" MP3
  TRACK 01 AUDIO
    TITLE "0:"
    INDEX 01 00:00:00
  TRACK 02 AUDIO
    TITLE "3:cjc036_2815"
    INDEX 01 00:00:05
  TRACK 03 AUDIO
    TITLE "0:"
    INDEX 01 00:02:30
  TRACK 04 AUDIO
    TITLE "3:cjc036_2816"
    INDEX 01 00:02:51
  TRACK 05 AUDIO
    TITLE "0:"
    INDEX 01 00:03:47
  TRACK 06 AUDIO
    TITLE "2:cjc036_2817"
    INDEX 01 00:03:57
  TRACK 07 AUDIO
    TITLE "0:"
    INDEX 01 00:07:07
  TRACK 08 AUDIO
    TITLE "3:cjc036_2818"
    INDEX 01 00:07:19
  TRACK 09 AUDIO
    TITLE "0:"
    INDEX 01 00:08:03
  TRACK 10 AUDIO
    TITLE "2:cjc036_2819"
    INDEX 01 00:08:13
  TRACK 11 AUDIO
    TITLE "0:"
    INDEX 01 00:10:41
  TRACK 12 AUDIO
    TITLE "3:cjc036_2820"
    INDEX 01 00:11:23
  TRACK 13 AUDIO
    TITLE "0:"
    INDEX 01 00:13:43
  TRACK 14 AUDIO
    TITLE "3:cjc036_2821"
    INDEX 01 00:13:49
  TRACK 15 AUDIO
    TITLE "0:"
    INDEX 01 00:14:41
  TRACK 16 AUDIO
    TITLE "2:cjc036_2822"
    INDEX 01 00:14:56
  TRACK 17 AUDIO
    TITLE "0:"
    INDEX 01 00:18:13
  TRACK 18 AUDIO
    TITLE "3:cjc036_2823"
    INDEX 01 00:18:48
  TRACK 19 AUDIO
    TITLE "0:"
    INDEX 01 00:19:40
  TRACK 20 AUDIO
    TITLE "2:cjc036_2824"
    INDEX 01 00:19:44
  TRACK 21 AUDIO
    TITLE "0:"
    INDEX 01 00:22:44
  TRACK 22 AUDIO
    TITLE "3:cjc036_2825"
    INDEX 01 00:23:30
  TRACK 23 AUDIO
    TITLE "0:"
    INDEX 01 00:25:54
  TRACK 24 AUDIO
    TITLE "3:cjc036_2826"
    INDEX 01 00:25:70
  TRACK 25 AUDIO
    TITLE "0:"
    INDEX 01 00:26:66
  TRACK 26 AUDIO
    TITLE "2:cjc036_2827"
    INDEX 01 00:26:67
  TRACK 27 AUDIO
    TITLE "0:"
    INDEX 01 00:30:10
  TRACK 28 AUDIO
    TITLE "3:cjc036_2828"
    INDEX 01 00:30:14
  TRACK 29 AUDIO
    TITLE "0:"
    INDEX 01 00:31:16
  TRACK 30 AUDIO
    TITLE "2:cjc036_2829"
    INDEX 01 00:31:33
  TRACK 31 AUDIO
    TITLE "0:"
    INDEX 01 00:36:44
  TRACK 32 AUDIO
    TITLE "3:cjc036_2830"
    INDEX 01 00:37:08
  TRACK 33 AUDIO
    TITLE "0:"
    INDEX 01 00:38:08
  TRACK 34 AUDIO
    TITLE "2:cjc036_2831"
    INDEX 01 00:38:12
  TRACK 35 AUDIO
    TITLE "0:"
    INDEX 01 00:42:70
  TRACK 36 AUDIO
    TITLE "3:cjc036_2832"
    INDEX 01 00:43:40
  TRACK 37 AUDIO
    TITLE "0:"
    INDEX 01 00:45:63
  TRACK 38 AUDIO
    TITLE "3:cjc036_2833"
    INDEX 01 00:45:73
  TRACK 39 AUDIO
    TITLE "0:"
    INDEX 01 00:46:64
  TRACK 40 AUDIO
    TITLE "2:cjc036_2834"
    INDEX 01 00:46:66
  TRACK 41 AUDIO
    TITLE "0:"
    INDEX 01 00:50:01
  TRACK 42 AUDIO
    TITLE "3:cjc036_2835"
    INDEX 01 00:50:15
  TRACK 43 AUDIO
    TITLE "0:"
    INDEX 01 00:51:09
  TRACK 44 AUDIO
    TITLE "2:cjc036_2836"
    INDEX 01 00:51:15
  TRACK 45 AUDIO
    TITLE "0:"
    INDEX 01 00:53:74
  TRACK 46 AUDIO
    TITLE "3:cjc036_2837"
    INDEX 01 00:54:60
  TRACK 47 AUDIO
    TITLE "0:"
    INDEX 01 00:57:09
  TRACK 48 AUDIO
    TITLE "3:cjc036_2838"
    INDEX 01 00:57:31
  TRACK 49 AUDIO
    TITLE "0:"
    INDEX 01 00:58:13
  TRACK 50 AUDIO
    TITLE "2:cjc036_2839"
    INDEX 01 00:58:18
  TRACK 51 AUDIO
    TITLE "0:"
    INDEX 01 01:01:27
  TRACK 52 AUDIO
    TITLE "3:cjc036_2840"
    INDEX 01 01:01:33
  TRACK 53 AUDIO
    TITLE "0:"
    INDEX 01 01:02:28
  TRACK 54 AUDIO
    TITLE "2:cjc036_2841"
    INDEX 01 01:02:30
  TRACK 55 AUDIO
    TITLE "0:"
    INDEX 01 01:04:56
  TRACK 56 AUDIO
    TITLE "3:cjc036_2842"
    INDEX 01 01:05:36
  TRACK 57 AUDIO
    TITLE "0:"
    INDEX 01 01:07:55
  TRACK 58 AUDIO
    TITLE "3:cjc036_2843"
    INDEX 01 01:07:74
  TRACK 59 AUDIO
    TITLE "0:"
    INDEX 01 01:08:66
  TRACK 60 AUDIO
    TITLE "2:cjc036_2844"
    INDEX 01 01:08:74
  TRACK 61 AUDIO
    TITLE "0:"
    INDEX 01 01:11:15
  TRACK 62 AUDIO
    TITLE "3:cjc036_2845"
    INDEX 01 01:11:19
  TRACK 63 AUDIO
    TITLE "0:"
    INDEX 01 01:12:15
  TRACK 64 AUDIO
    TITLE "2:cjc036_2846"
    INDEX 01 01:12:19
  TRACK 65 AUDIO
    TITLE "0:"
    INDEX 01 01:14:02
  TRACK 66 AUDIO
    TITLE "3:cjc036_2847"
    INDEX 01 01:14:49
  TRACK 67 AUDIO
    TITLE "0:"
    INDEX 01 01:16:73
  TRACK 68 AUDIO
    TITLE "3:cjc036_2848"
    INDEX 01 01:17:12
  TRACK 69 AUDIO
    TITLE "0:"
    INDEX 01 01:18:00
  TRACK 70 AUDIO
    TITLE "2:cjc036_2849"
    INDEX 01 01:18:06
  TRACK 71 AUDIO
    TITLE "0:"
    INDEX 01 01:21:39
  TRACK 72 AUDIO
    TITLE "3:cjc036_2850"
    INDEX 01 01:21:69
  TRACK 73 AUDIO
    TITLE "0:"
    INDEX 01 01:22:52
  TRACK 74 AUDIO
    TITLE "2:cjc036_2851"
    INDEX 01 01:22:66
  TRACK 75 AUDIO
    TITLE "0:"
    INDEX 01 01:25:39
  TRACK 76 AUDIO
    TITLE "3:cjc036_2852"
    INDEX 01 01:26:17
  TRACK 77 AUDIO
    TITLE "0:"
    INDEX 01 01:28:27
  TRACK 78 AUDIO
    TITLE "3:cjc036_2853"
    INDEX 01 01:28:49
  TRACK 79 AUDIO
    TITLE "0:"
    INDEX 01 01:29:41
  TRACK 80 AUDIO
    TITLE "2:cjc036_2854"
    INDEX 01 01:29:48
  TRACK 81 AUDIO
    TITLE "0:"
    INDEX 01 01:32:68
  TRACK 82 AUDIO
    TITLE "3:cjc036_2855"
    INDEX 01 01:33:15
  TRACK 83 AUDIO
    TITLE "0:"
    INDEX 01 01:34:05
  TRACK 84 AUDIO
    TITLE "2:cjc036_2856"
    INDEX 01 01:34:10
  TRACK 85 AUDIO
    TITLE "0:"
    INDEX 01 01:37:11
